<svg id="圖層_1" height="512" viewBox="0 0 512 512" width="512" xmlns="http://www.w3.org/2000/svg"><path id="_x30_7" d="m438.794 253.768c7.968 2.635 17.355 14.631 17.69 28.104l.102 53.344c0 8.824-3.296 15.988-8.238 19.518l-180.981 128.25c4.949-3.478 8.244-10.645 8.225-19.472l-.078-53.376c.212-11.813-6.643-25.871-17.694-28.082z" fill="#fbac0f"/><path id="_x30_6" d="m262.371 381.151 182.114-128.48-251.53-45.819-182.122 128.475z" fill="#f4d177"/><path id="_x30_5" d="m70.914 141.936c-8.049 2.354-17.567 13.106-17.932 25.219l-.065 47.906c0 7.91 3.305 14.34 8.31 17.505l183.273 115.17c-5.008-3.148-8.333-9.583-8.333-17.489l.081-47.938c-.208-10.589 6.728-23.21 17.916-25.203z" fill="#e63431"/><path id="_x30_4" d="m254.165 254.719-186.667-112.672 257.835-40.195 186.668 112.672z" fill="#dd6f6f"/><path id="_x30_3" d="m187.803 155.133-148.787-93.658c-6.555 1.903-14.266 10.646-14.559 20.488l-.059 38.941c-.023 6.467 2.689 11.691 6.76 14.272l148.771 93.643c-4.07-2.55-6.767-7.805-6.767-14.213l.065-38.99c-.159-8.61 5.472-18.871 14.576-20.483zm58.508-129.86-203.006 33.655 146.999 94.31 203.01-33.673z" fill="#006ab3"/><path id="_x30_2" d="m269.86 390.937c-2.514-3.858-5.933-6.552-9.703-7.245l-253.075-44.34s10.831 30.654 10.459 51.051c-.29 16.52-10.329 47.785-10.329 47.785l253.075 44.341c3.771.69 7.184-.801 9.664-3.765 2.501-2.963 4.031-7.372 4.031-12.511l-.098-61.393c.001-5.138-1.546-10.093-4.024-13.923zm234.638-177.901-254.657 42.149c-3.807.667-7.261 3.217-9.756 6.899-2.527 3.667-4.073 8.353-4.073 13.233l-.075 58.4c0 4.901 1.518 9.085 4.035 11.869 2.498 2.833 5.936 4.25 9.726 3.599l254.674-42.169s-7.33-18.632-9.4-48.182c-1.366-19.348 9.526-45.798 9.526-45.798zm-316.206 17 206.712-33.255s-9.078-15.246-9.954-36.424c-.7-16.767 10.071-37.655 10.071-37.655l-206.719 33.246c-3.067.511-5.868 2.534-7.926 5.425-2.029 2.869-3.276 6.558-3.276 10.426l-.065 46.014c-.039 3.836 1.218 7.154 3.259 9.368 2.03 2.217 4.811 3.321 7.898 2.855z" fill="#e4dcc9"/><path id="_x30_1" d="m511.389 302.452c-.072-.176-6.825-17.386-8.767-44.168-1.191-16.492 8.76-40.283 8.845-40.537 1.028-3.106.508-7.848-3.191-10.654l-110.882-70.214c2.156-5.803 3.797-8.912 4.285-10.063 1.022-2.395 1.022-8.021-2.931-11.133-1.179-.926-147.943-93.667-147.943-93.667-1.7-1.083-3.719-1.492-5.75-1.177 0 0-202.707 32.969-205.351 33.66-9.574 2.501-19.994 14.343-20.405 28.403l-.065 38.961c-.006 9.083 3.934 17.029 10.563 21.268l19.661 12.449c-1.035 3.136-1.758 6.447-1.862 9.922l-.078 47.619c0 10.453 4.5 19.553 12.048 24.37l38.938 24.656s-92.802 65.499-95.088 67.01c-2.279 1.511-4.259 5.627-3.048 9.964.085.303 10.368 30.286 10.029 49.456-.273 15.532-9.886 46.313-9.964 46.626-1.049 4.112.827 9.671 6.421 10.608l253.368 45.405c8.343.547 13.846-3.602 17.604-6.737 3.764-3.136 175.003-123.535 175.003-123.535 7.34-5.193 11.703-14.962 11.684-26.121l-.014-14.614 40.527-6.525c7.678-1.148 7.574-8.233 6.363-11.232zm-118.45-148.843 88.134 55.812-163.86 26.812-61.381 9.883-22.513-14.26 162.212-26.154c5.888-1.013 8.597-7.994 5.81-12.361-.085-.13-8.096-13.985-8.857-32.751-.091-2.246.13-4.6.455-6.981zm-10.751 37.506s-196.149 31.725-196.67 31.709c-1.075-.039-1.732-2.186-1.719-4.116l.059-46.284c.202-5.35 2.807-7.642 4.311-7.782l192.841-31.083c-2.787 8.028-5.419 18.292-5.048 27.699.501 12.221 3.483 22.647 6.226 29.857zm-137.57-153.465 126.921 80.374-128.81 21.089-51.136 8.238-126.784-80.278zm-205.957 91.539c-1.335-.856-2.911-3.286-2.898-7.302l.065-38.726c.137-4.729 3.093-8.957 5.803-11.207l132.112 83.648c-2.917 2.51-6.46 10.325-6.408 16.815.045 5.285-.13 38.144-.13 38.144zm29.769 94.351c-2.13-1.345-4.39-4.799-4.39-10.407 0 0-.749-46.58.222-48.186 0 0 109.481 71.106 114.619 73.128 2.045.805 4.22 1.345 6.48 1.289 1.719-.045 23.341-3.536 23.341-3.536l28.257 17.887c-7.229 5.054-8.538 14.868-8.538 21.113l-.163 49.915zm45.183 48.173s124.277 79.85 126.244 80.897c2.651 1.407 5.594 2.156 8.642 2.156 1.029 0 41.882-6.506 41.882-6.506l-34.34 24.197-226.992-41.145zm149.95 203.293-244.726-43.839c3.113-11.109 7.874-30.019 8.082-42.301.228-13.416-3.673-30.365-6.883-41.921 0 0 234.709 41.061 240.056 43.027 5.347 1.967 7.021 10.062 7.021 13.572l.064 62.91c.013 3.088-1.048 8.566-3.614 8.552zm179.731-127.55-159.497 112.376-.163-56.297c0-6.679-3.054-18.821-9.423-23.663l53.344-37.597 120.422-19.403.013 11.973c.019 6.842-2.534 11.078-4.696 12.611zm-194.352-9.257c-1.218-.03-4.063-1.28-4.083-6.815l.084-56.548c0-2.83 1.602-9.329 6.806-11.335l239.659-38.593c-2.982 9.742-6.096 23.103-5.269 34.568 1.25 17.329 4.337 30.953 6.74 39.426.001 0-243.233 39.317-243.937 39.297z"/></svg>