<svg id="Capa_1" enable-background="new 0 0 512 512" height="512" viewBox="0 0 512 512" width="512" xmlns="http://www.w3.org/2000/svg" xmlns:xlink="http://www.w3.org/1999/xlink"><linearGradient id="SVGID_1_" gradientUnits="userSpaceOnUse" x1="256" x2="256" y1="512" y2="0"><stop offset="0" stop-color="#addcff"/><stop offset=".5028" stop-color="#eaf6ff"/><stop offset="1" stop-color="#eaf6ff"/></linearGradient><linearGradient id="SVGID_2_" gradientUnits="userSpaceOnUse" x1="256" x2="256" y1="389.5" y2="122.5"><stop offset="0" stop-color="#00c0ff"/><stop offset="1" stop-color="#5558ff"/></linearGradient><g><g><circle cx="256" cy="256" fill="url(#SVGID_1_)" r="256"/></g><g><g><path d="m403.452 159.892c-2.229-1.686-5.118-2.242-7.807-1.425l-123.121 35.242h-33.049l-123.121-35.242c-2.689-.817-5.578-.27-7.807 1.425-2.238 1.686-3.548 4.319-3.548 7.118v177.992c0 3.972 2.628 7.466 6.445 8.561l124.353 35.599c.789.226 1.613.339 2.438.339h35.529c.824 0 1.648-.113 2.438-.339l124.353-35.599c3.816-1.095 6.445-4.589 6.445-8.561v-177.992c0-2.799-1.31-5.432-3.548-7.118zm-138.57 185.11c0 4.919-3.973 8.899-8.882 8.899s-8.882-3.98-8.882-8.899v-106.795c0-4.919 3.973-8.899 8.882-8.899s8.882 3.98 8.882 8.899zm124.353-213.59c0-2.755-1.275-5.354-3.452-7.04s-5.005-2.294-7.659-1.573c-5.388 2.067-49.108 7.871-89.267 47.723l100.379-28.731v-10.379zm-255.359-8.613c-2.68-.722-5.482-.113-7.659 1.573s-3.452 4.285-3.452 7.04v10.38l100.38 28.73c-39.939-39.635-83.727-45.597-89.269-47.723z" fill="url(#SVGID_2_)"/></g></g></g></svg>